<?xml version="1.0" encoding="UTF-8" standalone="no"?>
<!-- Created with Inkscape (http://www.inkscape.org/) -->

<svg
   xmlns:dc="http://purl.org/dc/elements/1.1/"
   xmlns:cc="http://creativecommons.org/ns#"
   xmlns:rdf="http://www.w3.org/1999/02/22-rdf-syntax-ns#"
   xmlns:svg="http://www.w3.org/2000/svg"
   xmlns="http://www.w3.org/2000/svg"
   xmlns:sodipodi="http://sodipodi.sourceforge.net/DTD/sodipodi-0.dtd"
   xmlns:inkscape="http://www.inkscape.org/namespaces/inkscape"
   version="1.1"
   width="521"
   height="641"
   id="svg2"
   inkscape:version="0.48.4 r9939"
   sodipodi:docname="laundromat-icon.svg">
  <sodipodi:namedview
     pagecolor="#ffffff"
     bordercolor="#666666"
     borderopacity="1"
     objecttolerance="10"
     gridtolerance="10"
     guidetolerance="10"
     inkscape:pageopacity="0"
     inkscape:pageshadow="2"
     inkscape:window-width="935"
     inkscape:window-height="1028"
     id="namedview3160"
     showgrid="true"
     inkscape:snap-page="false"
     inkscape:snap-global="true"
     inkscape:snap-nodes="true"
     inkscape:snap-grids="true"
     inkscape:snap-to-guides="false"
     inkscape:zoom="0.042609204"
     inkscape:cx="277.07421"
     inkscape:cy="219.72867"
     inkscape:window-x="49"
     inkscape:window-y="24"
     inkscape:window-maximized="0"
     inkscape:current-layer="svg2">
    <inkscape:grid
       type="xygrid"
       id="grid3162" />
  </sodipodi:namedview>
  <defs
     id="defs4" />
  <metadata
     id="metadata7">
    <rdf:RDF>
      <cc:Work
         rdf:about="">
        <dc:format>image/svg+xml</dc:format>
        <dc:type
           rdf:resource="http://purl.org/dc/dcmitype/StillImage" />
        <dc:title />
      </cc:Work>
    </rdf:RDF>
  </metadata>
  <g
     transform="translate(-39.5,-51.875)"
     id="layer1">
    <path
       d="m 119.5,52.875 c -60.000047,0 -81.532197,20.244309 -80,80 l 0.5,19.5 520,0 c 0,0 1.49766,44.50598 0.96682,-17.29977 C 560.43598,73.269475 539.20272,52.875 479.5,52.875 z m 299.46875,39.5 c 0.34088,-0.01728 0.68607,0 1.03125,0 11.04569,0 20,8.95431 20,20 0,11.0457 -8.95431,20 -20,20 -11.04569,0 -20,-8.9543 -20,-20 0,-10.70051 8.40136,-19.464337 18.96875,-20 z m 80,0 c 0.34088,-0.01728 0.68607,0 1.03125,0 11.04569,0 20,8.95431 20,20 0,11.0457 -8.95431,20 -20,20 -11.04569,0 -20,-8.9543 -20,-20 0,-10.70051 8.40136,-19.464337 18.96875,-20 z M 39.5,182.875 l 0,430 c 0,60.79319 19.999953,80 80,80 l 360,0 c 60,0 79.9319,-20 80,-80 l 0,-430 z m 260.5,69.5 c 99.41125,0 180,80.58875 180,180 0,99.41126 -80.58875,180 -180,180 -99.41125,0 -180,-80.58874 -180,-180 0,-99.41125 80.58875,-180 180,-180 z"
       id="path4246"
       style="fill:#000000;stroke:#000000;stroke-width:1px;stroke-linecap:butt;stroke-linejoin:miter;stroke-opacity:1"
       inkscape:connector-curvature="0"
       sodipodi:nodetypes="sscccsssssssssssssscssssccsssss" />
    <path
       d="m 300,272.375 c -88.36556,0 -160,71.63444 -160,160 60,110 200,140 260,90 60,-49.99999 0,-140 0,-140 0,0 40,10 60,50 0,-88.36556 -71.63444,-160 -160,-160 z m -60,80 120,80 -120,80 0,-160 z"
       id="path9015"
       style="fill:#000000;fill-opacity:1;stroke:none" />
  </g>
</svg>
